<?xml version="1.0" encoding="utf-8"?>
<!-- Generator: Adobe Illustrator 25.2.0, SVG Export Plug-In . SVG Version: 6.00 Build 0)  -->
<svg version="1.1" id="Layer_1" xmlns="http://www.w3.org/2000/svg" xmlns:xlink="http://www.w3.org/1999/xlink" x="0px" y="0px"
	 viewBox="0 0 366.6 238.8" enable-background="new 0 0 366.6 238.8" xml:space="preserve">
<polygon id="svg_36" fill="#FFFFFF" stroke="#326DE6" stroke-width="1.6" stroke-linecap="round" stroke-linejoin="round" stroke-miterlimit="10" points="
	23.7,64.5 121.7,8.3 219.3,64.5 219.3,177.6 121.7,233.8 23.7,177.6 "/>
<polygon id="svg_37" fill="#326DE6" points="23.7,121.1 23.7,177.6 121.7,233.8 170.5,205.8 "/>
<g>
	
		<linearGradient id="SVGID_1_" gradientUnits="userSpaceOnUse" x1="83.9997" y1="721.8525" x2="169.9997" y2="721.8525" gradientTransform="matrix(1 0 0 1 0 -615.9307)">
		<stop  offset="0" style="stop-color:#326DE6"/>
		<stop  offset="1" style="stop-color:#10FFC6"/>
	</linearGradient>
	<circle opacity="0.1" fill="url(#SVGID_1_)" enable-background="new    " cx="127" cy="105.9" r="43"/>
	<circle fill="none" stroke="#326DE6" stroke-width="2" stroke-miterlimit="10" cx="127" cy="105.9" r="43"/>
</g>
<g>
	
		<polygon fill="#06F7C9" stroke="#011F38" stroke-width="0.8" stroke-linecap="round" stroke-linejoin="round" stroke-miterlimit="10" points="
		116.4,80.8 126.9,74.7 137.5,80.8 126.9,86.9 	"/>
	
		<polygon fill="#06F7C9" stroke="#011F38" stroke-width="0.8" stroke-linecap="round" stroke-linejoin="round" stroke-miterlimit="10" points="
		116.4,93 116.4,80.8 126.9,86.9 126.9,99.1 	"/>
	
		<polygon fill="#06F7C9" stroke="#011F38" stroke-width="0.8" stroke-linecap="round" stroke-linejoin="round" stroke-miterlimit="10" points="
		126.9,99.1 126.9,86.9 137.5,80.8 137.5,93 	"/>
</g>
<g>
	
		<polygon fill="#70CCDA" stroke="#011F38" stroke-width="0.8" stroke-linecap="round" stroke-linejoin="round" stroke-miterlimit="10" points="
		116.4,121.1 126.9,115 137.5,121.1 126.9,127.2 	"/>
	
		<polygon fill="#70CCDA" stroke="#011F38" stroke-width="0.8" stroke-linecap="round" stroke-linejoin="round" stroke-miterlimit="10" points="
		116.4,133.3 116.4,121.1 126.9,127.2 126.9,139.4 	"/>
	
		<polygon fill="#70CCDA" stroke="#011F38" stroke-width="0.8" stroke-linecap="round" stroke-linejoin="round" stroke-miterlimit="10" points="
		126.9,139.4 126.9,127.2 137.5,121.1 137.5,133.3 	"/>
</g>
<g enable-background="new    ">
	<path d="M234.6,84.9v5.4c0,0.8,0.1,1.3,0.4,1.7c0.4,0.5,0.9,0.8,1.6,0.8c0.7,0,1.2-0.3,1.6-0.8c0.3-0.3,0.4-0.9,0.4-1.7v-5.4h1.4
		v5.8c0,1-0.3,1.7-0.9,2.4c-0.7,0.7-1.5,1-2.5,1s-1.8-0.3-2.5-1c-0.6-0.6-0.9-1.4-0.9-2.4v-5.8H234.6z"/>
	<path d="M245.1,89.2l-1.1,0.6c-0.2-0.4-0.4-0.5-0.6-0.5c-0.1,0-0.2,0-0.3,0.1s-0.1,0.2-0.1,0.3c0,0.2,0.3,0.4,0.8,0.7
		c0.7,0.3,1.2,0.6,1.4,0.8s0.4,0.6,0.4,1c0,0.6-0.2,1-0.6,1.4c-0.4,0.4-0.9,0.5-1.4,0.5c-1,0-1.6-0.5-2-1.4l1.1-0.5
		c0.2,0.3,0.3,0.4,0.4,0.5c0.2,0.1,0.4,0.2,0.6,0.2c0.4,0,0.7-0.2,0.7-0.6c0-0.2-0.2-0.5-0.5-0.7c-0.1-0.1-0.3-0.1-0.4-0.2
		s-0.3-0.1-0.4-0.2c-0.4-0.2-0.7-0.4-0.8-0.6c-0.2-0.2-0.3-0.5-0.3-0.9c0-0.5,0.2-0.9,0.5-1.2c0.3-0.3,0.8-0.5,1.3-0.5
		C244.2,88,244.8,88.4,245.1,89.2z"/>
	<path d="M251.9,91.4h-4.1c0,0.5,0.2,0.8,0.5,1.1c0.3,0.3,0.6,0.4,1,0.4c0.3,0,0.6-0.1,0.8-0.2c0.2-0.2,0.5-0.4,0.7-0.9l1.1,0.6
		c-0.2,0.3-0.4,0.5-0.5,0.8s-0.4,0.4-0.6,0.5s-0.5,0.2-0.7,0.3s-0.5,0.1-0.8,0.1c-0.9,0-1.5-0.3-2.1-0.8c-0.5-0.6-0.8-1.3-0.8-2.2
		c0-0.9,0.2-1.6,0.8-2.2c0.5-0.6,1.2-0.8,2-0.8c0.8,0,1.5,0.3,2,0.8c0.5,0.5,0.7,1.3,0.7,2.2L251.9,91.4z M250.5,90.3
		c-0.2-0.7-0.6-1.1-1.3-1.1c-0.2,0-0.3,0-0.5,0.1s-0.3,0.1-0.4,0.2s-0.2,0.2-0.3,0.3s-0.1,0.3-0.2,0.4H250.5z"/>
	<path d="M253.3,88.2h1.3v0.5c0.2-0.3,0.5-0.4,0.6-0.5c0.2-0.1,0.4-0.1,0.7-0.1c0.3,0,0.7,0.1,1.1,0.3l-0.6,1.2
		c-0.2-0.2-0.5-0.3-0.7-0.3c-0.7,0-1.1,0.5-1.1,1.6v3h-1.3V88.2z"/>
	<path d="M259.4,84.5l1.2,0.5l-1.7,3.4l-0.9-0.4L259.4,84.5z"/>
	<path d="M265.4,89.2l-1.1,0.6c-0.2-0.4-0.4-0.5-0.6-0.5c-0.1,0-0.2,0-0.3,0.1s-0.1,0.2-0.1,0.3c0,0.2,0.3,0.4,0.8,0.7
		c0.7,0.3,1.2,0.6,1.4,0.8s0.4,0.6,0.4,1c0,0.6-0.2,1-0.6,1.4c-0.4,0.4-0.9,0.5-1.4,0.5c-1,0-1.6-0.5-2-1.4l1.1-0.5
		c0.2,0.3,0.3,0.4,0.4,0.5c0.2,0.1,0.4,0.2,0.6,0.2c0.4,0,0.7-0.2,0.7-0.6c0-0.2-0.2-0.5-0.5-0.7c-0.1-0.1-0.3-0.1-0.4-0.2
		s-0.3-0.1-0.4-0.2c-0.4-0.2-0.7-0.4-0.8-0.6c-0.2-0.2-0.3-0.5-0.3-0.9c0-0.5,0.2-0.9,0.5-1.2c0.3-0.3,0.8-0.5,1.3-0.5
		C264.5,88,265,88.4,265.4,89.2z"/>
	<path d="M277.6,85.4V87c-0.8-0.7-1.6-1-2.4-1c-0.9,0-1.7,0.3-2.3,1c-0.6,0.7-1,1.5-1,2.4c0,0.9,0.3,1.8,1,2.4s1.4,1,2.4,1
		c0.5,0,0.9-0.1,1.2-0.2c0.2-0.1,0.4-0.2,0.6-0.3s0.4-0.3,0.6-0.5v1.6c-0.8,0.4-1.6,0.7-2.5,0.7c-1.3,0-2.4-0.5-3.3-1.4
		c-0.9-0.9-1.4-2-1.4-3.3c0-1.2,0.4-2.2,1.1-3.1c0.9-1.1,2.2-1.7,3.6-1.7C276,84.7,276.8,84.9,277.6,85.4z"/>
	<path d="M278.8,91c0-0.8,0.3-1.5,0.9-2.1s1.3-0.9,2.2-0.9c0.9,0,1.6,0.3,2.2,0.9c0.6,0.6,0.9,1.3,0.9,2.1c0,0.9-0.3,1.6-0.9,2.2
		c-0.6,0.6-1.3,0.9-2.2,0.9c-0.9,0-1.6-0.3-2.2-0.9C279.1,92.6,278.8,91.9,278.8,91z M280.1,91c0,0.6,0.2,1,0.5,1.4
		c0.3,0.3,0.7,0.5,1.2,0.5c0.5,0,0.9-0.2,1.2-0.5s0.5-0.8,0.5-1.3s-0.2-1-0.5-1.3c-0.3-0.3-0.7-0.5-1.2-0.5c-0.5,0-0.9,0.2-1.2,0.5
		S280.1,90.5,280.1,91z"/>
	<path d="M286.3,88.2h1.3v0.5c0.5-0.5,1-0.7,1.6-0.7c0.7,0,1.2,0.2,1.6,0.6c0.3,0.4,0.5,0.9,0.5,1.7v3.5h-1.3v-3.2
		c0-0.6-0.1-1-0.2-1.2c-0.2-0.2-0.4-0.3-0.8-0.3c-0.4,0-0.7,0.1-0.9,0.4c-0.2,0.3-0.3,0.8-0.3,1.5v2.8h-1.3V88.2z"/>
	<path d="M294.2,89.4v4.5h-1.3v-4.5h-0.6v-1.2h0.6v-2.1h1.3v2.1h1v1.2H294.2z"/>
	<path d="M300.4,88.2h1.3v5.7h-1.3v-0.6c-0.5,0.5-1.1,0.8-1.8,0.8c-0.8,0-1.4-0.3-2-0.9c-0.5-0.6-0.8-1.3-0.8-2.2
		c0-0.9,0.3-1.6,0.8-2.1s1.2-0.9,1.9-0.9c0.7,0,1.3,0.3,1.8,0.8V88.2z M297.3,91c0,0.5,0.1,1,0.4,1.3c0.3,0.3,0.7,0.5,1.1,0.5
		c0.5,0,0.9-0.2,1.2-0.5c0.3-0.3,0.5-0.8,0.5-1.3s-0.2-1-0.5-1.3c-0.3-0.3-0.7-0.5-1.2-0.5c-0.5,0-0.8,0.2-1.1,0.5
		C297.5,90.1,297.3,90.5,297.3,91z"/>
	<path d="M303.2,85.8c0-0.2,0.1-0.4,0.3-0.6s0.4-0.3,0.6-0.3c0.2,0,0.4,0.1,0.6,0.3c0.2,0.2,0.3,0.4,0.3,0.6s-0.1,0.4-0.3,0.6
		c-0.2,0.2-0.4,0.3-0.6,0.3s-0.4-0.1-0.6-0.3S303.2,86.1,303.2,85.8z M304.7,88.2v5.7h-1.3v-5.7H304.7z"/>
	<path d="M306.4,88.2h1.3v0.5c0.5-0.5,1-0.7,1.6-0.7c0.7,0,1.2,0.2,1.6,0.6c0.3,0.4,0.5,0.9,0.5,1.7v3.5H310v-3.2
		c0-0.6-0.1-1-0.2-1.2c-0.2-0.2-0.4-0.3-0.8-0.3c-0.4,0-0.7,0.1-0.9,0.4c-0.2,0.3-0.3,0.8-0.3,1.5v2.8h-1.3V88.2z"/>
	<path d="M318.2,91.4h-4.1c0,0.5,0.2,0.8,0.5,1.1c0.3,0.3,0.6,0.4,1,0.4c0.3,0,0.6-0.1,0.8-0.2c0.2-0.2,0.5-0.4,0.7-0.9l1.1,0.6
		c-0.2,0.3-0.4,0.5-0.5,0.8s-0.4,0.4-0.6,0.5s-0.5,0.2-0.7,0.3s-0.5,0.1-0.8,0.1c-0.9,0-1.5-0.3-2.1-0.8c-0.5-0.6-0.8-1.3-0.8-2.2
		c0-0.9,0.2-1.6,0.8-2.2c0.5-0.6,1.2-0.8,2-0.8c0.8,0,1.5,0.3,2,0.8c0.5,0.5,0.7,1.3,0.7,2.2L318.2,91.4z M316.8,90.3
		c-0.2-0.7-0.6-1.1-1.3-1.1c-0.2,0-0.3,0-0.5,0.1s-0.3,0.1-0.4,0.2s-0.2,0.2-0.3,0.3s-0.1,0.3-0.2,0.4H316.8z"/>
	<path d="M319.6,88.2h1.3v0.5c0.2-0.3,0.5-0.4,0.6-0.5c0.2-0.1,0.4-0.1,0.7-0.1c0.3,0,0.7,0.1,1.1,0.3l-0.6,1.2
		c-0.2-0.2-0.5-0.3-0.7-0.3c-0.7,0-1.1,0.5-1.1,1.6v3h-1.3V88.2z"/>
</g>
<g enable-background="new    ">
	<path d="M235.7,126.9l3.5-3.6h1.8l-4.1,4.1l4.1,5h-1.8l-3.3-4l-0.3,0.3v3.7h-1.4v-9h1.4V126.9z"/>
	<path d="M242,126.6h1.3v0.5c0.5-0.5,1-0.7,1.6-0.7c0.7,0,1.2,0.2,1.6,0.6c0.3,0.4,0.5,0.9,0.5,1.7v3.5h-1.3v-3.2
		c0-0.6-0.1-1-0.2-1.2c-0.2-0.2-0.4-0.3-0.8-0.3c-0.4,0-0.7,0.1-0.9,0.4c-0.2,0.3-0.3,0.8-0.3,1.5v2.8H242V126.6z"/>
	<path d="M252.8,126.6h1.3v5.7h-1.3v-0.6c-0.5,0.5-1.1,0.8-1.8,0.8c-0.8,0-1.4-0.3-2-0.9c-0.5-0.6-0.8-1.3-0.8-2.2
		c0-0.9,0.3-1.6,0.8-2.1s1.2-0.9,1.9-0.9c0.7,0,1.3,0.3,1.8,0.8V126.6z M249.7,129.4c0,0.5,0.1,1,0.4,1.3c0.3,0.3,0.7,0.5,1.1,0.5
		c0.5,0,0.9-0.2,1.2-0.5c0.3-0.3,0.5-0.8,0.5-1.3s-0.2-1-0.5-1.3c-0.3-0.3-0.7-0.5-1.2-0.5c-0.5,0-0.8,0.2-1.1,0.5
		C249.8,128.5,249.7,128.9,249.7,129.4z"/>
	<path d="M257.1,127.8v4.5h-1.3v-4.5h-0.6v-1.2h0.6v-2.1h1.3v2.1h1v1.2H257.1z"/>
	<path d="M258.9,124.2c0-0.2,0.1-0.4,0.3-0.6s0.4-0.3,0.6-0.3c0.2,0,0.4,0.1,0.6,0.3c0.2,0.2,0.3,0.4,0.3,0.6s-0.1,0.4-0.3,0.6
		c-0.2,0.2-0.4,0.3-0.6,0.3s-0.4-0.1-0.6-0.3S258.9,124.5,258.9,124.2z M260.4,126.6v5.7H259v-5.7H260.4z"/>
	<path d="M262.7,126.6l1.5,3.2l1.5-3.2h1.5l-3,6.1l-2.9-6.1H262.7z"/>
	<path d="M273.1,129.8H269c0,0.5,0.2,0.8,0.5,1.1c0.3,0.3,0.6,0.4,1,0.4c0.3,0,0.6-0.1,0.8-0.2c0.2-0.2,0.5-0.4,0.7-0.9l1.1,0.6
		c-0.2,0.3-0.4,0.5-0.5,0.8s-0.4,0.4-0.6,0.5s-0.5,0.2-0.7,0.3s-0.5,0.1-0.8,0.1c-0.9,0-1.5-0.3-2.1-0.8c-0.5-0.6-0.8-1.3-0.8-2.2
		c0-0.9,0.2-1.6,0.8-2.2c0.5-0.6,1.2-0.8,2-0.8c0.8,0,1.5,0.3,2,0.8c0.5,0.5,0.7,1.3,0.7,2.2L273.1,129.8z M271.7,128.7
		c-0.2-0.7-0.6-1.1-1.3-1.1c-0.2,0-0.3,0-0.5,0.1s-0.3,0.1-0.4,0.2c-0.1,0.1-0.2,0.2-0.3,0.3s-0.1,0.3-0.2,0.4H271.7z"/>
	<path d="M275.7,122.9l1.2,0.5l-1.7,3.4l-0.9-0.4L275.7,122.9z"/>
	<path d="M281.7,127.6l-1.1,0.6c-0.2-0.4-0.4-0.5-0.6-0.5c-0.1,0-0.2,0-0.3,0.1s-0.1,0.2-0.1,0.3c0,0.2,0.3,0.4,0.8,0.7
		c0.7,0.3,1.2,0.6,1.4,0.8s0.4,0.6,0.4,1c0,0.6-0.2,1-0.6,1.4c-0.4,0.4-0.9,0.5-1.4,0.5c-1,0-1.6-0.5-2-1.4l1.1-0.5
		c0.2,0.3,0.3,0.4,0.4,0.5c0.2,0.1,0.4,0.2,0.6,0.2c0.4,0,0.7-0.2,0.7-0.6c0-0.2-0.2-0.5-0.5-0.7c-0.1-0.1-0.3-0.1-0.4-0.2
		s-0.3-0.1-0.4-0.2c-0.4-0.2-0.7-0.4-0.8-0.6c-0.2-0.2-0.3-0.5-0.3-0.9c0-0.5,0.2-0.9,0.5-1.2c0.3-0.3,0.8-0.5,1.3-0.5
		C280.9,126.5,281.4,126.8,281.7,127.6z"/>
	<path d="M288.6,128.6v3.7h-1.4v-9h1.5c0.8,0,1.3,0.1,1.7,0.2c0.4,0.1,0.7,0.3,1,0.6c0.5,0.5,0.8,1.1,0.8,1.9c0,0.8-0.3,1.5-0.8,2
		c-0.6,0.5-1.3,0.7-2.2,0.7H288.6z M288.6,127.4h0.5c1.3,0,1.9-0.5,1.9-1.4c0-0.9-0.6-1.4-1.9-1.4h-0.5V127.4z"/>
	<path d="M293.5,126.6h1.3v0.5c0.2-0.3,0.5-0.4,0.6-0.5c0.2-0.1,0.4-0.1,0.7-0.1c0.3,0,0.7,0.1,1.1,0.3l-0.6,1.2
		c-0.2-0.2-0.5-0.3-0.7-0.3c-0.7,0-1.1,0.5-1.1,1.6v3h-1.3V126.6z"/>
	<path d="M297.6,129.4c0-0.8,0.3-1.5,0.9-2.1s1.3-0.9,2.2-0.9c0.9,0,1.6,0.3,2.2,0.9c0.6,0.6,0.9,1.3,0.9,2.1c0,0.9-0.3,1.6-0.9,2.2
		c-0.6,0.6-1.3,0.9-2.2,0.9c-0.9,0-1.6-0.3-2.2-0.9C297.9,131,297.6,130.3,297.6,129.4z M298.9,129.4c0,0.6,0.2,1,0.5,1.4
		c0.3,0.3,0.7,0.5,1.2,0.5c0.5,0,0.9-0.2,1.2-0.5s0.5-0.8,0.5-1.3s-0.2-1-0.5-1.3c-0.3-0.3-0.7-0.5-1.2-0.5c-0.5,0-0.9,0.2-1.2,0.5
		C299.1,128.5,298.9,128.9,298.9,129.4z"/>
	<path d="M306.4,122.4v4.9c0.5-0.5,1.1-0.8,1.8-0.8c0.8,0,1.4,0.3,1.9,0.9c0.5,0.6,0.8,1.3,0.8,2.1c0,0.9-0.3,1.6-0.8,2.2
		c-0.5,0.6-1.2,0.9-1.9,0.9c-0.7,0-1.2-0.3-1.8-0.8v0.6h-1.3v-9.9H306.4z M309.5,129.5c0-0.5-0.1-1-0.4-1.3
		c-0.3-0.4-0.7-0.5-1.1-0.5c-0.5,0-0.9,0.2-1.2,0.5c-0.3,0.3-0.5,0.8-0.5,1.3c0,0.6,0.1,1,0.4,1.3c0.3,0.3,0.7,0.5,1.2,0.5
		c0.5,0,0.8-0.2,1.1-0.5C309.4,130.4,309.5,130,309.5,129.5z"/>
	<path d="M317.5,129.8h-4.1c0,0.5,0.2,0.8,0.5,1.1c0.3,0.3,0.6,0.4,1,0.4c0.3,0,0.6-0.1,0.8-0.2c0.2-0.2,0.5-0.4,0.7-0.9l1.1,0.6
		c-0.2,0.3-0.4,0.5-0.5,0.8s-0.4,0.4-0.6,0.5s-0.5,0.2-0.7,0.3s-0.5,0.1-0.8,0.1c-0.9,0-1.5-0.3-2.1-0.8c-0.5-0.6-0.8-1.3-0.8-2.2
		c0-0.9,0.2-1.6,0.8-2.2c0.5-0.6,1.2-0.8,2-0.8c0.8,0,1.5,0.3,2,0.8c0.5,0.5,0.7,1.3,0.7,2.2L317.5,129.8z M316.1,128.7
		c-0.2-0.7-0.6-1.1-1.3-1.1c-0.2,0-0.3,0-0.5,0.1s-0.3,0.1-0.4,0.2c-0.1,0.1-0.2,0.2-0.3,0.3s-0.1,0.3-0.2,0.4H316.1z"/>
	<path d="M328,124.6l-1.1,0.7c-0.2-0.4-0.4-0.6-0.6-0.7c-0.2-0.1-0.4-0.2-0.8-0.2c-0.4,0-0.7,0.1-0.9,0.3c-0.2,0.2-0.4,0.5-0.4,0.8
		c0,0.4,0.3,0.8,1,1.1l0.9,0.4c0.7,0.3,1.3,0.7,1.6,1.1c0.3,0.4,0.5,1,0.5,1.6c0,0.8-0.3,1.5-0.8,2.1c-0.6,0.5-1.3,0.8-2.1,0.8
		c-0.8,0-1.4-0.2-1.9-0.7c-0.5-0.5-0.8-1.1-0.9-2l1.4-0.3c0.1,0.5,0.2,0.9,0.3,1.1c0.3,0.4,0.7,0.6,1.2,0.6c0.4,0,0.8-0.1,1.1-0.4
		s0.4-0.6,0.4-1.1c0-0.2,0-0.3-0.1-0.5s-0.1-0.3-0.2-0.4s-0.2-0.2-0.4-0.3s-0.4-0.2-0.6-0.3l-0.9-0.4c-1.2-0.5-1.9-1.3-1.9-2.3
		c0-0.7,0.3-1.2,0.8-1.7c0.5-0.5,1.2-0.7,1.9-0.7C326.6,123.1,327.4,123.6,328,124.6z"/>
	<path d="M329.4,124.2c0-0.2,0.1-0.4,0.3-0.6s0.4-0.3,0.6-0.3c0.2,0,0.4,0.1,0.6,0.3c0.2,0.2,0.3,0.4,0.3,0.6s-0.1,0.4-0.3,0.6
		c-0.2,0.2-0.4,0.3-0.6,0.3s-0.4-0.1-0.6-0.3S329.4,124.5,329.4,124.2z M330.9,126.6v5.7h-1.3v-5.7H330.9z"/>
	<path d="M336.8,122.4h1.3v9.9h-1.3v-0.6c-0.5,0.5-1.1,0.8-1.8,0.8c-0.8,0-1.4-0.3-1.9-0.9c-0.5-0.6-0.8-1.3-0.8-2.2
		c0-0.9,0.3-1.6,0.8-2.1c0.5-0.6,1.1-0.9,1.9-0.9c0.7,0,1.3,0.3,1.8,0.8V122.4z M333.7,129.4c0,0.5,0.1,1,0.4,1.3
		c0.3,0.3,0.7,0.5,1.1,0.5c0.5,0,0.9-0.2,1.2-0.5c0.3-0.3,0.5-0.8,0.5-1.3s-0.2-1-0.5-1.3c-0.3-0.3-0.7-0.5-1.2-0.5
		c-0.5,0-0.8,0.2-1.1,0.5C333.8,128.5,333.7,128.9,333.7,129.4z"/>
	<path d="M345,129.8h-4.1c0,0.5,0.2,0.8,0.5,1.1c0.3,0.3,0.6,0.4,1,0.4c0.3,0,0.6-0.1,0.8-0.2c0.2-0.2,0.5-0.4,0.7-0.9l1.1,0.6
		c-0.2,0.3-0.4,0.5-0.5,0.8s-0.4,0.4-0.6,0.5s-0.5,0.2-0.7,0.3s-0.5,0.1-0.8,0.1c-0.9,0-1.5-0.3-2.1-0.8c-0.5-0.6-0.8-1.3-0.8-2.2
		c0-0.9,0.2-1.6,0.8-2.2c0.5-0.6,1.2-0.8,2-0.8c0.8,0,1.5,0.3,2,0.8c0.5,0.5,0.7,1.3,0.7,2.2L345,129.8z M343.6,128.7
		c-0.2-0.7-0.6-1.1-1.3-1.1c-0.2,0-0.3,0-0.5,0.1s-0.3,0.1-0.4,0.2c-0.1,0.1-0.2,0.2-0.3,0.3s-0.1,0.3-0.2,0.4H343.6z"/>
	<path d="M350.9,126.9v1.8c-0.3-0.4-0.6-0.6-0.8-0.8c-0.2-0.1-0.5-0.2-0.8-0.2c-0.5,0-0.9,0.2-1.2,0.5c-0.3,0.3-0.5,0.8-0.5,1.3
		c0,0.5,0.2,1,0.5,1.3c0.3,0.3,0.7,0.5,1.2,0.5c0.3,0,0.6-0.1,0.8-0.2c0.2-0.1,0.5-0.4,0.8-0.8v1.7c-0.5,0.3-1.1,0.4-1.6,0.4
		c-0.9,0-1.6-0.3-2.2-0.9c-0.6-0.6-0.9-1.3-0.9-2.1s0.3-1.6,0.9-2.2s1.3-0.9,2.2-0.9C349.8,126.5,350.4,126.6,350.9,126.9z"/>
	<path d="M356.4,126.6h1.3v5.7h-1.3v-0.6c-0.5,0.5-1.1,0.8-1.8,0.8c-0.8,0-1.4-0.3-2-0.9c-0.5-0.6-0.8-1.3-0.8-2.2
		c0-0.9,0.3-1.6,0.8-2.1s1.2-0.9,1.9-0.9c0.7,0,1.3,0.3,1.8,0.8V126.6z M353.2,129.4c0,0.5,0.1,1,0.4,1.3c0.3,0.3,0.7,0.5,1.1,0.5
		c0.5,0,0.9-0.2,1.2-0.5c0.3-0.3,0.5-0.8,0.5-1.3s-0.2-1-0.5-1.3c-0.3-0.3-0.7-0.5-1.2-0.5c-0.5,0-0.8,0.2-1.1,0.5
		C353.4,128.5,353.2,128.9,353.2,129.4z"/>
	<path d="M359.4,126.6h1.3v0.5c0.2-0.3,0.5-0.4,0.6-0.5c0.2-0.1,0.4-0.1,0.7-0.1c0.3,0,0.7,0.1,1.1,0.3l-0.6,1.2
		c-0.2-0.2-0.5-0.3-0.7-0.3c-0.7,0-1.1,0.5-1.1,1.6v3h-1.3V126.6z"/>
</g>
<line fill="none" stroke="#414042" stroke-width="0.3" stroke-linecap="round" stroke-linejoin="round" stroke-miterlimit="10" x1="230.9" y1="128.8" x2="132.2" y2="128.8"/>
<g enable-background="new    ">
	<path d="M234.6,70.1v3.7h-1.4v-9h1.5c0.8,0,1.3,0.1,1.7,0.2c0.4,0.1,0.7,0.3,1,0.6c0.5,0.5,0.8,1.1,0.8,1.9c0,0.8-0.3,1.5-0.8,2
		s-1.3,0.7-2.2,0.7H234.6z M234.6,68.8h0.5c1.3,0,1.9-0.5,1.9-1.4c0-0.9-0.6-1.4-1.9-1.4h-0.5V68.8z"/>
	<path d="M238.8,70.8c0-0.8,0.3-1.5,0.9-2.1s1.3-0.9,2.2-0.9c0.9,0,1.6,0.3,2.2,0.9c0.6,0.6,0.9,1.3,0.9,2.1c0,0.9-0.3,1.6-0.9,2.2
		c-0.6,0.6-1.3,0.9-2.2,0.9c-0.9,0-1.6-0.3-2.2-0.9C239.1,72.5,238.8,71.7,238.8,70.8z M240.2,70.9c0,0.6,0.2,1,0.5,1.4
		c0.3,0.3,0.7,0.5,1.2,0.5c0.5,0,0.9-0.2,1.2-0.5s0.5-0.8,0.5-1.3s-0.2-1-0.5-1.3c-0.3-0.3-0.7-0.5-1.2-0.5c-0.5,0-0.9,0.2-1.2,0.5
		S240.2,70.3,240.2,70.9z"/>
	<path d="M250.5,63.8h1.3v9.9h-1.3v-0.6c-0.5,0.5-1.1,0.8-1.8,0.8c-0.8,0-1.4-0.3-1.9-0.9c-0.5-0.6-0.8-1.3-0.8-2.2
		c0-0.9,0.3-1.6,0.8-2.1c0.5-0.6,1.1-0.9,1.9-0.9c0.7,0,1.3,0.3,1.8,0.8V63.8z M247.4,70.9c0,0.5,0.1,1,0.4,1.3
		c0.3,0.3,0.7,0.5,1.1,0.5c0.5,0,0.9-0.2,1.2-0.5c0.3-0.3,0.5-0.8,0.5-1.3s-0.2-1-0.5-1.3c-0.3-0.3-0.7-0.5-1.2-0.5
		c-0.5,0-0.8,0.2-1.1,0.5C247.5,69.9,247.4,70.4,247.4,70.9z"/>
	<path d="M257.4,69.6l0.5,0.2c-0.2,0.4-0.3,0.8-0.4,1.2c0,0.2-0.1,0.4-0.1,0.6c0,0.2,0,0.4,0,0.7c0,0.2,0,0.5,0,0.7
		c0,0.2,0,0.4,0.1,0.6c0.1,0.4,0.2,0.7,0.4,1.2l-0.5,0.2c-0.4-0.7-0.5-1.6-0.5-2.6C256.8,71.2,257,70.3,257.4,69.6z"/>
	<path d="M260.4,71.5v0.7c-0.1-0.2-0.2-0.3-0.3-0.3c-0.1-0.1-0.2-0.1-0.3-0.1c-0.2,0-0.4,0.1-0.5,0.2c-0.1,0.1-0.2,0.3-0.2,0.5
		c0,0.2,0.1,0.4,0.2,0.5c0.1,0.1,0.3,0.2,0.5,0.2c0.1,0,0.2,0,0.3-0.1c0.1-0.1,0.2-0.2,0.3-0.3v0.7c-0.2,0.1-0.4,0.2-0.7,0.2
		c-0.4,0-0.7-0.1-0.9-0.4c-0.2-0.2-0.4-0.5-0.4-0.9c0-0.4,0.1-0.7,0.4-0.9c0.3-0.2,0.6-0.4,0.9-0.4C260,71.3,260.2,71.4,260.4,71.5z
		"/>
	<path d="M260.9,71.4h0.5v0.2c0.1-0.1,0.2-0.2,0.3-0.2c0.1,0,0.2-0.1,0.3-0.1c0.1,0,0.3,0,0.5,0.1l-0.3,0.5
		c-0.1-0.1-0.2-0.1-0.3-0.1c-0.3,0-0.4,0.2-0.4,0.7v1.2h-0.5V71.4z"/>
	<path d="M264.9,72.7h-1.7c0,0.2,0.1,0.4,0.2,0.5c0.1,0.1,0.3,0.2,0.4,0.2c0.1,0,0.2,0,0.3-0.1c0.1-0.1,0.2-0.2,0.3-0.4l0.5,0.3
		c-0.1,0.1-0.1,0.2-0.2,0.3c-0.1,0.1-0.2,0.2-0.3,0.2c-0.1,0.1-0.2,0.1-0.3,0.1c-0.1,0-0.2,0-0.3,0c-0.4,0-0.6-0.1-0.9-0.3
		c-0.2-0.2-0.3-0.5-0.3-0.9c0-0.4,0.1-0.7,0.3-0.9c0.2-0.2,0.5-0.3,0.8-0.3c0.4,0,0.6,0.1,0.8,0.3c0.2,0.2,0.3,0.5,0.3,0.9
		L264.9,72.7z M264.4,72.2c-0.1-0.3-0.3-0.4-0.6-0.4c-0.1,0-0.1,0-0.2,0s-0.1,0-0.2,0.1c0,0-0.1,0.1-0.1,0.1c0,0.1-0.1,0.1-0.1,0.2
		H264.4z"/>
	<path d="M267.3,71.4h0.6v2.4h-0.6v-0.2c-0.2,0.2-0.5,0.3-0.7,0.3c-0.3,0-0.6-0.1-0.8-0.4c-0.2-0.2-0.3-0.5-0.3-0.9
		c0-0.4,0.1-0.7,0.3-0.9c0.2-0.2,0.5-0.4,0.8-0.4c0.3,0,0.5,0.1,0.7,0.3V71.4z M266,72.5c0,0.2,0.1,0.4,0.2,0.6
		c0.1,0.1,0.3,0.2,0.5,0.2c0.2,0,0.4-0.1,0.5-0.2c0.1-0.1,0.2-0.3,0.2-0.6c0-0.2-0.1-0.4-0.2-0.6c-0.1-0.1-0.3-0.2-0.5-0.2
		c-0.2,0-0.3,0.1-0.5,0.2C266,72.2,266,72.3,266,72.5z"/>
	<path d="M269.1,71.9v1.9h-0.5v-1.9h-0.2v-0.5h0.2v-0.9h0.5v0.9h0.4v0.5H269.1z"/>
	<path d="M272.1,72.7h-1.7c0,0.2,0.1,0.4,0.2,0.5c0.1,0.1,0.3,0.2,0.4,0.2c0.1,0,0.2,0,0.3-0.1c0.1-0.1,0.2-0.2,0.3-0.4l0.5,0.3
		c-0.1,0.1-0.1,0.2-0.2,0.3c-0.1,0.1-0.2,0.2-0.3,0.2c-0.1,0.1-0.2,0.1-0.3,0.1c-0.1,0-0.2,0-0.3,0c-0.4,0-0.6-0.1-0.9-0.3
		c-0.2-0.2-0.3-0.5-0.3-0.9c0-0.4,0.1-0.7,0.3-0.9c0.2-0.2,0.5-0.3,0.8-0.3c0.3,0,0.6,0.1,0.8,0.3c0.2,0.2,0.3,0.5,0.3,0.9
		L272.1,72.7z M271.5,72.2c-0.1-0.3-0.3-0.4-0.6-0.4c-0.1,0-0.1,0-0.2,0s-0.1,0-0.2,0.1s-0.1,0.1-0.1,0.1c0,0.1-0.1,0.1-0.1,0.2
		H271.5z"/>
	<path d="M274.5,69.6h0.6v4.1h-0.6v-0.2c-0.2,0.2-0.5,0.3-0.7,0.3c-0.3,0-0.6-0.1-0.8-0.4c-0.2-0.2-0.3-0.5-0.3-0.9
		c0-0.4,0.1-0.7,0.3-0.9c0.2-0.2,0.5-0.4,0.8-0.4c0.3,0,0.5,0.1,0.7,0.3V69.6z M273.2,72.5c0,0.2,0.1,0.4,0.2,0.6
		c0.1,0.1,0.3,0.2,0.5,0.2c0.2,0,0.4-0.1,0.5-0.2c0.1-0.1,0.2-0.3,0.2-0.6c0-0.2-0.1-0.4-0.2-0.6c-0.1-0.1-0.3-0.2-0.5-0.2
		c-0.2,0-0.3,0.1-0.5,0.2C273.2,72.2,273.2,72.3,273.2,72.5z"/>
	<path d="M277.8,69.6v2c0.2-0.2,0.5-0.3,0.7-0.3c0.3,0,0.6,0.1,0.8,0.4c0.2,0.2,0.3,0.5,0.3,0.9c0,0.4-0.1,0.7-0.3,0.9
		c-0.2,0.2-0.5,0.4-0.8,0.4c-0.3,0-0.5-0.1-0.7-0.3v0.2h-0.5v-4.1H277.8z M279.1,72.6c0-0.2-0.1-0.4-0.2-0.6
		c-0.1-0.1-0.3-0.2-0.5-0.2c-0.2,0-0.4,0.1-0.5,0.2c-0.1,0.1-0.2,0.3-0.2,0.5c0,0.2,0.1,0.4,0.2,0.6c0.1,0.1,0.3,0.2,0.5,0.2
		c0.2,0,0.3-0.1,0.5-0.2C279,73,279.1,72.8,279.1,72.6z"/>
	<path d="M280.9,73.3l-1.1-1.9h0.6l0.7,1.4l0.7-1.4h0.6l-1.9,3.7H280L280.9,73.3z"/>
	<path d="M285.1,71.5l1.5-1.5h0.8l-1.7,1.7l1.7,2.1h-0.8l-1.4-1.7l-0.1,0.1v1.6h-0.6V70h0.6V71.5z"/>
	<path d="M287.7,71.4h0.6v0.2c0.2-0.2,0.4-0.3,0.6-0.3c0.3,0,0.5,0.1,0.6,0.3c0.1,0.1,0.2,0.4,0.2,0.7v1.5h-0.6v-1.3
		c0-0.2,0-0.4-0.1-0.5c-0.1-0.1-0.2-0.1-0.3-0.1c-0.2,0-0.3,0.1-0.4,0.2c-0.1,0.1-0.1,0.3-0.1,0.6v1.1h-0.6V71.4z"/>
	<path d="M292.2,71.4h0.6v2.4h-0.6v-0.2c-0.2,0.2-0.5,0.3-0.7,0.3c-0.3,0-0.6-0.1-0.8-0.4c-0.2-0.2-0.3-0.5-0.3-0.9
		c0-0.4,0.1-0.7,0.3-0.9c0.2-0.2,0.5-0.4,0.8-0.4c0.3,0,0.5,0.1,0.7,0.3V71.4z M290.9,72.5c0,0.2,0.1,0.4,0.2,0.6
		c0.1,0.1,0.3,0.2,0.5,0.2c0.2,0,0.4-0.1,0.5-0.2c0.1-0.1,0.2-0.3,0.2-0.6c0-0.2-0.1-0.4-0.2-0.6c-0.1-0.1-0.3-0.2-0.5-0.2
		c-0.2,0-0.3,0.1-0.5,0.2C291,72.2,290.9,72.3,290.9,72.5z"/>
	<path d="M294,71.9v1.9h-0.5v-1.9h-0.2v-0.5h0.2v-0.9h0.5v0.9h0.4v0.5H294z"/>
	<path d="M294.8,70.4c0-0.1,0-0.2,0.1-0.2c0.1-0.1,0.2-0.1,0.3-0.1c0.1,0,0.2,0,0.3,0.1c0.1,0.1,0.1,0.2,0.1,0.3s0,0.2-0.1,0.3
		c-0.1,0.1-0.2,0.1-0.3,0.1c-0.1,0-0.2,0-0.3-0.1C294.8,70.6,294.8,70.5,294.8,70.4z M295.4,71.4v2.4h-0.5v-2.4H295.4z"/>
	<path d="M296.4,71.4l0.6,1.3l0.6-1.3h0.6l-1.2,2.5l-1.2-2.5H296.4z"/>
	<path d="M300.7,72.7H299c0,0.2,0.1,0.4,0.2,0.5c0.1,0.1,0.3,0.2,0.4,0.2c0.1,0,0.2,0,0.3-0.1c0.1-0.1,0.2-0.2,0.3-0.4l0.5,0.3
		c-0.1,0.1-0.1,0.2-0.2,0.3c-0.1,0.1-0.2,0.2-0.3,0.2c-0.1,0.1-0.2,0.1-0.3,0.1c-0.1,0-0.2,0-0.3,0c-0.4,0-0.6-0.1-0.9-0.3
		c-0.2-0.2-0.3-0.5-0.3-0.9c0-0.4,0.1-0.7,0.3-0.9c0.2-0.2,0.5-0.3,0.8-0.3c0.4,0,0.6,0.1,0.8,0.3c0.2,0.2,0.3,0.5,0.3,0.9
		L300.7,72.7z M300.1,72.2c-0.1-0.3-0.3-0.4-0.6-0.4c-0.1,0-0.1,0-0.2,0s-0.1,0-0.2,0.1c0,0-0.1,0.1-0.1,0.1c0,0.1-0.1,0.1-0.1,0.2
		H300.1z"/>
	<path d="M301.8,74.8l-0.5-0.2c0.2-0.4,0.3-0.8,0.4-1.2c0.1-0.4,0.1-0.8,0.1-1.2c0-0.5,0-0.9-0.1-1.2c-0.1-0.4-0.2-0.8-0.4-1.2
		l0.5-0.2c0.4,0.7,0.5,1.6,0.5,2.6C302.3,73.2,302.1,74,301.8,74.8z"/>
</g>
<line fill="none" stroke="#414042" stroke-width="0.3" stroke-linecap="round" stroke-linejoin="round" stroke-miterlimit="10" x1="230.9" y1="90.9" x2="135.1" y2="90.9"/>
<g>
	<g>
		<path fill="none" stroke="#ED1C24" stroke-width="2" stroke-miterlimit="10" d="M47.2,150c2-3.6,10.1-17,27.6-23.4
			c14.1-5.1,26.9-3,34.7-0.6"/>
		<g>
			<path fill="#ED1C24" d="M116.6,128.8c-3.9,0-8.9,0.6-12.4,1.9l4.2-4.9l0.1-6.5C110.3,122.6,113.7,126.3,116.6,128.8z"/>
		</g>
	</g>
</g>
<g>
	<path fill="#70CCDA" d="M123.9,118.3c0-8.3,0.1-16.5,0.1-24.8"/>
	<g>
		<path fill="none" stroke="#EC2024" stroke-linecap="round" stroke-linejoin="round" d="M123.9,118.3c0-6.7,0.1-13.5,0.1-20.2"/>
		<g>
			<path fill="#EC2024" d="M124,93.5c0.8,2.2,2.1,4.8,3.6,6.5l-3.6-1.3l-3.6,1.3C121.8,98.4,123.2,95.7,124,93.5z"/>
		</g>
	</g>
</g>
<g>
	<path fill="#ED1C24" d="M67.4,135.5l-0.8-0.5l0.8-0.5l1.2,0.7l-2.8,4.9l-0.7-0.4L67.4,135.5z"/>
	<path fill="#ED1C24" d="M67.6,140.7c0.1-0.1,0.2-0.2,0.3-0.2c0.1,0,0.3,0,0.4,0.1c0.1,0.1,0.2,0.2,0.2,0.3c0,0.1,0,0.3-0.1,0.4
		c-0.1,0.1-0.2,0.2-0.3,0.2c-0.1,0-0.3,0-0.4-0.1c-0.1-0.1-0.2-0.2-0.2-0.3C67.5,141,67.5,140.9,67.6,140.7z"/>
	<path fill="#ED1C24" d="M75,138.5l-1.9,3.2l1.6-0.4l0.9,0.6l-2.1,0.5L74,145l-0.9-0.5l-0.3-1.9l-0.2,0l-0.7,1.2l-0.7-0.4l3.1-5.3
		L75,138.5z"/>
	<path fill="#ED1C24" d="M76.9,142.6l-1,1.8c-0.3,0.5-0.2,0.9,0.2,1.1c0.4,0.2,0.7,0.1,1-0.4l1-1.8l0.7,0.4l-1,1.8
		c-0.1,0.2-0.3,0.4-0.5,0.6c-0.2,0.1-0.3,0.2-0.6,0.3c-0.4,0.1-0.7,0-1.1-0.2c-0.4-0.2-0.6-0.5-0.7-0.8c-0.1-0.2-0.1-0.4-0.1-0.6
		c0-0.2,0.1-0.4,0.3-0.7l1-1.8L76.9,142.6z"/>
	<path fill="#ED1C24" d="M81.8,142.4l-1.5,2.6c0.5-0.1,0.9-0.1,1.2,0.1c0.4,0.2,0.7,0.6,0.8,1.1c0.1,0.5,0,0.9-0.3,1.4
		c-0.3,0.5-0.6,0.8-1.1,0.9c-0.5,0.1-0.9,0.1-1.3-0.1c-0.4-0.2-0.6-0.5-0.7-1l-0.2,0.3l-0.7-0.4l3.1-5.3L81.8,142.4z M81.2,147.2
		c0.2-0.3,0.2-0.6,0.2-0.9c-0.1-0.3-0.2-0.5-0.4-0.6c-0.3-0.2-0.5-0.2-0.8-0.1c-0.3,0.1-0.5,0.3-0.7,0.6c-0.2,0.3-0.2,0.6-0.2,0.9
		c0.1,0.3,0.2,0.5,0.5,0.6c0.2,0.1,0.5,0.2,0.8,0.1C80.9,147.6,81.1,147.5,81.2,147.2z"/>
	<path fill="#ED1C24" d="M85.4,149.8l-2.2-1.3c-0.1,0.3-0.2,0.5-0.1,0.7c0.1,0.2,0.2,0.4,0.4,0.5c0.2,0.1,0.3,0.1,0.5,0.1
		c0.2,0,0.4-0.1,0.7-0.2l0.4,0.7c-0.2,0.1-0.4,0.2-0.5,0.2c-0.2,0.1-0.3,0.1-0.5,0.1c-0.2,0-0.3,0-0.5-0.1c-0.2,0-0.3-0.1-0.5-0.2
		c-0.5-0.3-0.7-0.6-0.8-1.1c-0.1-0.5,0-0.9,0.3-1.4c0.3-0.5,0.6-0.8,1.1-0.9c0.4-0.1,0.9-0.1,1.3,0.2c0.5,0.3,0.7,0.6,0.8,1.1
		c0.1,0.4,0,0.9-0.3,1.4L85.4,149.8z M85,148.8c0.1-0.4,0-0.8-0.4-1c-0.1,0-0.2-0.1-0.3-0.1c-0.1,0-0.2,0-0.3,0
		c-0.1,0-0.2,0-0.3,0.1c-0.1,0-0.2,0.1-0.2,0.2L85,148.8z"/>
	<path fill="#ED1C24" d="M89.2,146.7l-3.1,5.3l-0.7-0.4l3.1-5.3L89.2,146.7z"/>
	<path fill="#ED1C24" d="M90.6,152.8l-2.2-1.3c-0.1,0.3-0.2,0.5-0.1,0.7c0.1,0.2,0.2,0.4,0.4,0.5c0.2,0.1,0.3,0.1,0.5,0.1
		c0.2,0,0.4-0.1,0.7-0.2l0.4,0.7c-0.2,0.1-0.4,0.2-0.5,0.2c-0.2,0.1-0.3,0.1-0.5,0.1c-0.2,0-0.3,0-0.5-0.1c-0.2,0-0.3-0.1-0.5-0.2
		c-0.5-0.3-0.7-0.6-0.8-1.1c-0.1-0.5,0-0.9,0.3-1.4c0.3-0.5,0.6-0.8,1.1-0.9c0.4-0.1,0.9-0.1,1.3,0.2c0.5,0.3,0.7,0.6,0.8,1.1
		c0.1,0.4,0,0.9-0.3,1.4L90.6,152.8z M90.2,151.8c0.1-0.4,0-0.8-0.4-1c-0.1-0.1-0.2-0.1-0.3-0.1c-0.1,0-0.2,0-0.3,0s-0.2,0-0.3,0.1
		c-0.1,0-0.2,0.1-0.2,0.2L90.2,151.8z"/>
	<path fill="#ED1C24" d="M92.7,152.7l-1.4,2.4l-0.7-0.4l1.4-2.4l-0.3-0.2l0.4-0.7l0.3,0.2l0.7-1.1l0.7,0.4l-0.7,1.1l0.6,0.3
		l-0.4,0.7L92.7,152.7z"/>
	<path fill="#ED1C24" d="M94.1,159l-0.7-0.4l2.8-4.7l0.7,0.4l-0.2,0.3c0.4-0.1,0.8-0.1,1.2,0.1c0.4,0.2,0.7,0.6,0.8,1.1
		c0.1,0.5,0,0.9-0.3,1.4c-0.3,0.5-0.6,0.8-1.1,0.9c-0.5,0.1-0.9,0.1-1.3-0.1c-0.4-0.2-0.6-0.5-0.7-1L94.1,159z M97.6,156.8
		c0.2-0.3,0.2-0.6,0.2-0.9c-0.1-0.3-0.2-0.5-0.4-0.6c-0.3-0.2-0.5-0.2-0.8-0.1s-0.5,0.3-0.7,0.6c-0.2,0.3-0.2,0.6-0.2,0.9
		c0.1,0.3,0.2,0.5,0.5,0.6c0.2,0.1,0.5,0.2,0.8,0.1C97.3,157.2,97.5,157,97.6,156.8z"/>
	<path fill="#ED1C24" d="M100,156.1l0.7,0.4l-0.2,0.3c0.2-0.1,0.4-0.1,0.5-0.1c0.1,0,0.3,0.1,0.4,0.1c0.2,0.1,0.3,0.3,0.5,0.5
		l-0.7,0.5c-0.1-0.2-0.2-0.3-0.3-0.4c-0.4-0.2-0.7,0-1.1,0.5l-0.9,1.6l-0.7-0.4L100,156.1z"/>
	<path fill="#ED1C24" d="M101.3,158.9c0.3-0.4,0.6-0.7,1.1-0.9c0.5-0.1,1-0.1,1.4,0.2c0.5,0.3,0.8,0.6,0.9,1.1
		c0.1,0.5,0.1,1-0.2,1.4c-0.3,0.5-0.7,0.8-1.1,0.9c-0.5,0.1-1,0-1.4-0.2c-0.5-0.3-0.8-0.7-0.9-1.1
		C101,159.8,101.1,159.3,101.3,158.9z M102,159.3c-0.2,0.3-0.2,0.6-0.2,0.9c0.1,0.3,0.2,0.5,0.5,0.7c0.3,0.2,0.6,0.2,0.8,0.1
		c0.3-0.1,0.5-0.3,0.7-0.6c0.2-0.3,0.2-0.6,0.2-0.9c-0.1-0.3-0.2-0.5-0.5-0.7c-0.3-0.2-0.5-0.2-0.8-0.1
		C102.4,158.8,102.2,159,102,159.3z"/>
	<path fill="#ED1C24" d="M108.3,157.9l-1.5,2.6c0.5-0.1,0.9-0.1,1.2,0.1c0.4,0.2,0.7,0.6,0.8,1.1c0.1,0.5,0,0.9-0.3,1.4
		c-0.3,0.5-0.6,0.8-1.1,0.9c-0.5,0.1-0.9,0.1-1.3-0.1c-0.4-0.2-0.6-0.5-0.7-1l-0.2,0.3l-0.7-0.4l3.1-5.3L108.3,157.9z M107.7,162.6
		c0.2-0.3,0.2-0.6,0.2-0.9c-0.1-0.3-0.2-0.5-0.4-0.6c-0.3-0.2-0.5-0.2-0.8-0.1c-0.3,0.1-0.5,0.3-0.7,0.6c-0.2,0.3-0.2,0.6-0.2,0.9
		c0.1,0.3,0.2,0.5,0.5,0.6c0.2,0.1,0.5,0.2,0.8,0.1C107.3,163.1,107.6,162.9,107.7,162.6z"/>
	<path fill="#ED1C24" d="M111.9,165.3l-2.2-1.3c-0.1,0.3-0.2,0.5-0.1,0.7c0.1,0.2,0.2,0.4,0.4,0.5c0.2,0.1,0.3,0.1,0.5,0.1
		c0.2,0,0.4-0.1,0.7-0.2l0.4,0.7c-0.2,0.1-0.4,0.2-0.5,0.2c-0.2,0.1-0.3,0.1-0.5,0.1c-0.2,0-0.3,0-0.5-0.1c-0.2,0-0.3-0.1-0.5-0.2
		c-0.5-0.3-0.7-0.6-0.8-1.1c-0.1-0.5,0-0.9,0.3-1.4c0.3-0.5,0.6-0.8,1.1-0.9c0.4-0.1,0.9-0.1,1.3,0.2c0.5,0.3,0.7,0.6,0.8,1.1
		c0.1,0.4,0,0.9-0.3,1.4L111.9,165.3z M111.5,164.3c0.1-0.4,0-0.8-0.4-1c-0.1,0-0.2-0.1-0.3-0.1c-0.1,0-0.2,0-0.3,0
		c-0.1,0-0.2,0-0.3,0.1c-0.1,0-0.2,0.1-0.2,0.2L111.5,164.3z"/>
</g>
<g>
	<path fill="#70CCDA" d="M132.2,118.3c0-8.3,0.1-16.5,0.1-24.8"/>
	<g>
		<path fill="none" stroke="#EC2024" stroke-linecap="round" stroke-linejoin="round" d="M132.2,118.3c0-6.7,0.1-13.5,0.1-20.2"/>
		<g>
			<path fill="#EC2024" d="M132.3,93.5c0.8,2.2,2.1,4.8,3.6,6.5l-3.6-1.3l-3.6,1.3C130.1,98.4,131.5,95.7,132.3,93.5z"/>
		</g>
	</g>
</g>
<line fill="none" stroke="#414042" stroke-width="0.3" stroke-linecap="round" stroke-linejoin="round" stroke-miterlimit="10" x1="230.9" y1="69.6" x2="150.1" y2="69.6"/>
<g enable-background="new    ">
	<path d="M234.5,168.8v-9.7l6.6,6.9v-6.3h1.4v9.6l-6.6-6.9v6.3H234.5z"/>
	<path d="M244.2,165.9c0-0.8,0.3-1.5,0.9-2.1s1.3-0.9,2.2-0.9c0.9,0,1.6,0.3,2.2,0.9c0.6,0.6,0.9,1.3,0.9,2.1c0,0.9-0.3,1.6-0.9,2.2
		c-0.6,0.6-1.3,0.9-2.2,0.9c-0.9,0-1.6-0.3-2.2-0.9C244.4,167.5,244.2,166.8,244.2,165.9z M245.5,165.9c0,0.6,0.2,1,0.5,1.4
		c0.3,0.3,0.7,0.5,1.2,0.5c0.5,0,0.9-0.2,1.2-0.5s0.5-0.8,0.5-1.3s-0.2-1-0.5-1.3c-0.3-0.3-0.7-0.5-1.2-0.5c-0.5,0-0.9,0.2-1.2,0.5
		S245.5,165.4,245.5,165.9z"/>
	<path d="M255.8,158.9h1.3v9.9h-1.3v-0.6c-0.5,0.5-1.1,0.8-1.8,0.8c-0.8,0-1.4-0.3-1.9-0.9c-0.5-0.6-0.8-1.3-0.8-2.2
		c0-0.9,0.3-1.6,0.8-2.1c0.5-0.6,1.1-0.9,1.9-0.9c0.7,0,1.3,0.3,1.8,0.8V158.9z M252.7,165.9c0,0.5,0.1,1,0.4,1.3
		c0.3,0.3,0.7,0.5,1.1,0.5c0.5,0,0.9-0.2,1.2-0.5c0.3-0.3,0.5-0.8,0.5-1.3s-0.2-1-0.5-1.3c-0.3-0.3-0.7-0.5-1.2-0.5
		c-0.5,0-0.8,0.2-1.1,0.5C252.9,165,252.7,165.4,252.7,165.9z"/>
	<path d="M264,166.2h-4.1c0,0.5,0.2,0.8,0.5,1.1c0.3,0.3,0.6,0.4,1,0.4c0.3,0,0.6-0.1,0.8-0.2c0.2-0.2,0.5-0.4,0.7-0.9l1.1,0.6
		c-0.2,0.3-0.4,0.5-0.5,0.8s-0.4,0.4-0.6,0.5s-0.5,0.2-0.7,0.3s-0.5,0.1-0.8,0.1c-0.9,0-1.5-0.3-2.1-0.8c-0.5-0.6-0.8-1.3-0.8-2.2
		c0-0.9,0.2-1.6,0.8-2.2c0.5-0.6,1.2-0.8,2-0.8c0.8,0,1.5,0.3,2,0.8c0.5,0.5,0.7,1.3,0.7,2.2L264,166.2z M262.7,165.2
		c-0.2-0.7-0.6-1.1-1.3-1.1c-0.2,0-0.3,0-0.5,0.1s-0.3,0.1-0.4,0.2s-0.2,0.2-0.3,0.3s-0.1,0.3-0.2,0.4H262.7z"/>
</g>
<line fill="none" stroke="#414042" stroke-width="0.3" stroke-linecap="round" stroke-linejoin="round" stroke-miterlimit="10" x1="230.9" y1="166" x2="219.3" y2="166"/>
<g>
	<path fill="#ED1C24" d="M136.9,106.9l2,0l0,0.7l-3.5,0l1.8-2.2c0.2-0.2,0.3-0.4,0.5-0.6c0.1-0.2,0.2-0.3,0.3-0.4
		c0.1-0.2,0.2-0.4,0.2-0.6c0-0.2-0.1-0.5-0.3-0.6s-0.4-0.2-0.6-0.2c-0.5,0-0.8,0.3-0.9,0.9l-0.8,0c0.1-1.1,0.7-1.7,1.7-1.7
		c0.5,0,0.9,0.2,1.2,0.5c0.3,0.3,0.5,0.7,0.5,1.1c0,0.3-0.1,0.6-0.2,0.8c-0.1,0.1-0.2,0.3-0.3,0.5c-0.1,0.2-0.3,0.4-0.6,0.7
		L136.9,106.9z"/>
	<path fill="#ED1C24" d="M140,107.2c0-0.1,0-0.2,0.1-0.3c0.1-0.1,0.2-0.1,0.3-0.1c0.1,0,0.2,0,0.3,0.1c0.1,0.1,0.1,0.2,0.1,0.3
		c0,0.1,0,0.2-0.1,0.3c-0.1,0.1-0.2,0.1-0.3,0.1c-0.1,0-0.2,0-0.3-0.1S140,107.4,140,107.2z"/>
	<path fill="#ED1C24" d="M146.2,104.9l-0.6,0.3c-0.1-0.2-0.2-0.3-0.4-0.3c-0.1,0-0.1,0-0.2,0.1c-0.1,0-0.1,0.1-0.1,0.2
		c0,0.1,0.1,0.3,0.4,0.4c0.4,0.2,0.7,0.3,0.8,0.5c0.1,0.1,0.2,0.3,0.2,0.6c0,0.3-0.1,0.6-0.4,0.8c-0.2,0.2-0.5,0.3-0.8,0.3
		c-0.6,0-1-0.3-1.2-0.8l0.7-0.3c0.1,0.2,0.2,0.3,0.2,0.3c0.1,0.1,0.2,0.1,0.3,0.1c0.3,0,0.4-0.1,0.4-0.4c0-0.1-0.1-0.3-0.3-0.4
		c-0.1,0-0.2-0.1-0.2-0.1s-0.2-0.1-0.2-0.1c-0.2-0.1-0.4-0.2-0.5-0.3c-0.1-0.1-0.2-0.3-0.2-0.5c0-0.3,0.1-0.5,0.3-0.7
		c0.2-0.2,0.4-0.3,0.7-0.3C145.7,104.2,146,104.4,146.2,104.9z"/>
	<path fill="#ED1C24" d="M147,102.9c0-0.1,0-0.3,0.1-0.3c0.1-0.1,0.2-0.1,0.4-0.1c0.1,0,0.3,0,0.4,0.1c0.1,0.1,0.1,0.2,0.1,0.4
		s0,0.3-0.1,0.4c-0.1,0.1-0.2,0.1-0.4,0.1c-0.1,0-0.3,0-0.4-0.1C147,103.2,147,103,147,102.9z M147.9,104.3l0,3.3h-0.8l0-3.3H147.9z
		"/>
	<path fill="#ED1C24" d="M151.3,101.8l0.8,0l0,5.8l-0.8,0v-0.3c-0.3,0.3-0.6,0.4-1,0.4c-0.5,0-0.8-0.2-1.1-0.5
		c-0.3-0.3-0.4-0.8-0.4-1.3c0-0.5,0.1-0.9,0.4-1.2c0.3-0.3,0.7-0.5,1.1-0.5c0.4,0,0.7,0.2,1,0.5L151.3,101.8z M149.5,105.9
		c0,0.3,0.1,0.6,0.3,0.8c0.2,0.2,0.4,0.3,0.7,0.3c0.3,0,0.5-0.1,0.7-0.3c0.2-0.2,0.3-0.5,0.3-0.8c0-0.3-0.1-0.6-0.3-0.8
		c-0.2-0.2-0.4-0.3-0.7-0.3c-0.3,0-0.5,0.1-0.7,0.3C149.5,105.4,149.5,105.6,149.5,105.9z"/>
	<path fill="#ED1C24" d="M156.1,106.1l-2.4,0c0,0.3,0.1,0.5,0.3,0.7c0.2,0.2,0.4,0.2,0.6,0.2c0.2,0,0.3,0,0.5-0.1
		c0.1-0.1,0.3-0.3,0.4-0.5l0.6,0.4c-0.1,0.2-0.2,0.3-0.3,0.4c-0.1,0.1-0.2,0.2-0.4,0.3c-0.1,0.1-0.3,0.1-0.4,0.2
		c-0.1,0-0.3,0.1-0.5,0.1c-0.5,0-0.9-0.2-1.2-0.5c-0.3-0.3-0.5-0.7-0.5-1.3c0-0.5,0.1-1,0.4-1.3c0.3-0.3,0.7-0.5,1.2-0.5
		c0.5,0,0.9,0.2,1.2,0.5c0.3,0.3,0.4,0.7,0.4,1.3L156.1,106.1z M155.3,105.5c-0.1-0.4-0.4-0.6-0.8-0.6c-0.1,0-0.2,0-0.3,0
		s-0.2,0.1-0.2,0.1s-0.1,0.1-0.2,0.2c0,0.1-0.1,0.2-0.1,0.3L155.3,105.5z"/>
	<path fill="#ED1C24" d="M159.5,104.4l0,1c-0.2-0.2-0.3-0.4-0.5-0.4c-0.1-0.1-0.3-0.1-0.5-0.1c-0.3,0-0.5,0.1-0.7,0.3
		c-0.2,0.2-0.3,0.5-0.3,0.8c0,0.3,0.1,0.6,0.3,0.8c0.2,0.2,0.4,0.3,0.7,0.3c0.2,0,0.3,0,0.5-0.1c0.1-0.1,0.3-0.2,0.5-0.5l0,1
		c-0.3,0.2-0.6,0.2-0.9,0.2c-0.5,0-0.9-0.2-1.3-0.5c-0.3-0.3-0.5-0.8-0.5-1.2c0-0.5,0.2-0.9,0.5-1.3c0.4-0.3,0.8-0.5,1.3-0.5
		C158.9,104.2,159.2,104.3,159.5,104.4z"/>
	<path fill="#ED1C24" d="M162.7,104.3l0.8,0l0,3.3l-0.8,0l0-0.3c-0.3,0.3-0.7,0.4-1,0.4c-0.5,0-0.8-0.2-1.1-0.5
		c-0.3-0.3-0.4-0.8-0.4-1.3c0-0.5,0.1-0.9,0.4-1.2c0.3-0.3,0.7-0.5,1.1-0.5c0.4,0,0.7,0.2,1,0.5V104.3z M160.9,105.9
		c0,0.3,0.1,0.6,0.3,0.8c0.2,0.2,0.4,0.3,0.7,0.3c0.3,0,0.5-0.1,0.7-0.3c0.2-0.2,0.3-0.5,0.3-0.8c0-0.3-0.1-0.6-0.3-0.8
		c-0.2-0.2-0.4-0.3-0.7-0.3c-0.3,0-0.5,0.1-0.7,0.3C160.9,105.4,160.9,105.6,160.9,105.9z"/>
	<path fill="#ED1C24" d="M164.4,104.3h0.8l0,0.3c0.1-0.1,0.3-0.2,0.4-0.3c0.1-0.1,0.2-0.1,0.4-0.1c0.2,0,0.4,0.1,0.6,0.2l-0.4,0.7
		c-0.1-0.1-0.3-0.2-0.4-0.2c-0.4,0-0.6,0.3-0.6,1l0,1.7h-0.8L164.4,104.3z"/>
	<path fill="#ED1C24" d="M136.4,117.8h-0.8l0-5.1h0.8v0.4c0.3-0.3,0.6-0.5,1-0.5c0.5,0,0.8,0.2,1.1,0.5c0.3,0.3,0.5,0.8,0.5,1.3
		c0,0.5-0.1,0.9-0.4,1.2c-0.3,0.3-0.7,0.5-1.1,0.5c-0.4,0-0.7-0.2-1-0.5L136.4,117.8z M138.2,114.4c0-0.3-0.1-0.6-0.3-0.8
		c-0.2-0.2-0.4-0.3-0.7-0.3c-0.3,0-0.5,0.1-0.7,0.3c-0.2,0.2-0.3,0.5-0.3,0.8c0,0.3,0.1,0.6,0.3,0.8c0.2,0.2,0.4,0.3,0.7,0.3
		c0.3,0,0.5-0.1,0.7-0.3C138.1,114.9,138.2,114.7,138.2,114.4z"/>
	<path fill="#ED1C24" d="M139.8,112.7l0.8,0v0.3c0.1-0.1,0.3-0.2,0.4-0.3c0.1-0.1,0.2-0.1,0.4-0.1c0.2,0,0.4,0.1,0.6,0.2l-0.4,0.7
		c-0.1-0.1-0.3-0.2-0.4-0.2c-0.4,0-0.6,0.3-0.6,0.9l0,1.7l-0.8,0L139.8,112.7z"/>
	<path fill="#ED1C24" d="M142.2,114.3c0-0.5,0.2-0.9,0.5-1.2c0.3-0.3,0.8-0.5,1.3-0.5c0.5,0,0.9,0.2,1.3,0.5
		c0.3,0.3,0.5,0.8,0.5,1.2c0,0.5-0.2,0.9-0.5,1.3c-0.3,0.3-0.8,0.5-1.3,0.5c-0.5,0-0.9-0.2-1.3-0.5
		C142.4,115.3,142.2,114.8,142.2,114.3z M143,114.3c0,0.3,0.1,0.6,0.3,0.8c0.2,0.2,0.4,0.3,0.7,0.3c0.3,0,0.5-0.1,0.7-0.3
		c0.2-0.2,0.3-0.5,0.3-0.8c0-0.3-0.1-0.6-0.3-0.8c-0.2-0.2-0.4-0.3-0.7-0.3c-0.3,0-0.5,0.1-0.7,0.3C143.1,113.8,143,114,143,114.3z"
		/>
	<path fill="#ED1C24" d="M147.3,110.2l0,2.8c0.3-0.3,0.7-0.5,1-0.5c0.4,0,0.8,0.2,1.1,0.5c0.3,0.3,0.4,0.7,0.4,1.2
		c0,0.5-0.1,0.9-0.4,1.3c-0.3,0.3-0.7,0.5-1.1,0.5c-0.4,0-0.7-0.1-1-0.4v0.3l-0.8,0l0-5.8L147.3,110.2z M149.2,114.4
		c0-0.3-0.1-0.6-0.3-0.8c-0.2-0.2-0.4-0.3-0.7-0.3c-0.3,0-0.5,0.1-0.7,0.3c-0.2,0.2-0.3,0.5-0.3,0.8c0,0.3,0.1,0.6,0.3,0.8
		c0.2,0.2,0.4,0.3,0.7,0.3c0.3,0,0.5-0.1,0.7-0.3C149.1,114.9,149.2,114.7,149.2,114.4z"/>
	<path fill="#ED1C24" d="M153.8,114.5l-2.4,0c0,0.3,0.1,0.5,0.3,0.7c0.2,0.2,0.4,0.2,0.6,0.2c0.2,0,0.3,0,0.5-0.1
		c0.1-0.1,0.3-0.3,0.4-0.5l0.6,0.4c-0.1,0.2-0.2,0.3-0.3,0.4s-0.2,0.2-0.4,0.3c-0.1,0.1-0.3,0.1-0.4,0.2c-0.1,0-0.3,0.1-0.5,0.1
		c-0.5,0-0.9-0.2-1.2-0.5c-0.3-0.3-0.5-0.7-0.5-1.3c0-0.5,0.1-1,0.4-1.3c0.3-0.3,0.7-0.5,1.2-0.5c0.5,0,0.9,0.2,1.2,0.5
		c0.3,0.3,0.4,0.7,0.4,1.3L153.8,114.5z M153,113.9c-0.1-0.4-0.4-0.6-0.8-0.6c-0.1,0-0.2,0-0.3,0s-0.2,0.1-0.2,0.1
		c-0.1,0.1-0.1,0.1-0.2,0.2c0,0.1-0.1,0.2-0.1,0.3L153,113.9z"/>
	<path fill="#ED1C24" d="M156.6,113.2l-0.6,0.3c-0.1-0.2-0.2-0.3-0.4-0.3c-0.1,0-0.1,0-0.2,0.1c0,0-0.1,0.1-0.1,0.2
		c0,0.1,0.1,0.3,0.4,0.4c0.4,0.2,0.7,0.3,0.8,0.5c0.1,0.1,0.2,0.3,0.2,0.6c0,0.3-0.1,0.6-0.4,0.8c-0.2,0.2-0.5,0.3-0.8,0.3
		c-0.6,0-1-0.3-1.2-0.8l0.7-0.3c0.1,0.2,0.2,0.3,0.2,0.3c0.1,0.1,0.2,0.1,0.3,0.1c0.3,0,0.4-0.1,0.4-0.4c0-0.1-0.1-0.3-0.3-0.4
		c-0.1,0-0.2-0.1-0.2-0.1c-0.1,0-0.2-0.1-0.2-0.1c-0.2-0.1-0.4-0.2-0.5-0.3c-0.1-0.1-0.2-0.3-0.2-0.5c0-0.3,0.1-0.5,0.3-0.7
		c0.2-0.2,0.4-0.3,0.7-0.3C156,112.6,156.4,112.8,156.6,113.2z"/>
</g>
<g>
	<path fill="#FFFFFF" d="M59.7,159l-5.6,9.6l4.6-1.2l2.8,1.6l-6.1,1.5l1.1,7.7l-2.7-1.6l-0.8-5.6l-0.5,0.1l-2,3.5l-2.1-1.2l9.2-15.7
		L59.7,159z"/>
	<path fill="#FFFFFF" d="M65.4,171.2l-3,5.2c-0.9,1.5-0.7,2.6,0.5,3.3s2.2,0.3,3.1-1.2l3-5.2l2.1,1.2l-3.1,5.2
		c-0.4,0.7-0.9,1.3-1.4,1.7c-0.4,0.4-1,0.6-1.6,0.7c-1.1,0.2-2.1,0-3.2-0.7c-1.1-0.6-1.8-1.5-2.1-2.5c-0.2-0.6-0.3-1.2-0.2-1.8
		c0.1-0.5,0.4-1.2,0.8-2l3.1-5.2L65.4,171.2z"/>
	<path fill="#FFFFFF" d="M79.6,170.6l-4.5,7.7c1.3-0.4,2.5-0.3,3.6,0.4c1.2,0.7,2,1.8,2.2,3.1c0.3,1.4,0,2.7-0.8,4.1
		c-0.8,1.4-1.9,2.3-3.2,2.7c-1.3,0.4-2.6,0.3-3.9-0.4c-1-0.6-1.7-1.6-2.1-2.8l-0.6,0.9l-2.1-1.2l9.2-15.7L79.6,170.6z M78,184.8
		c0.5-0.9,0.7-1.7,0.5-2.5c-0.2-0.8-0.6-1.5-1.3-1.9c-0.8-0.4-1.5-0.5-2.3-0.3c-0.8,0.3-1.4,0.8-1.9,1.7c-0.5,0.9-0.7,1.7-0.5,2.5
		c0.2,0.8,0.6,1.4,1.4,1.9c0.7,0.4,1.5,0.5,2.3,0.2C76.9,186.1,77.5,185.6,78,184.8z"/>
	<path fill="#FFFFFF" d="M90.3,192.5l-6.5-3.8c-0.4,0.8-0.5,1.5-0.3,2.2c0.2,0.7,0.6,1.2,1.3,1.6c0.5,0.3,1,0.4,1.5,0.4
		c0.5-0.1,1.1-0.3,1.9-0.7l1.2,2c-0.5,0.3-1.1,0.5-1.6,0.7c-0.5,0.2-1,0.2-1.5,0.2c-0.5,0-0.9-0.1-1.4-0.2c-0.5-0.1-0.9-0.3-1.4-0.6
		c-1.3-0.8-2.2-1.9-2.5-3.2c-0.3-1.3,0-2.7,0.8-4.2c0.8-1.4,1.9-2.4,3.2-2.8c1.3-0.4,2.6-0.2,3.9,0.5c1.3,0.8,2.1,1.8,2.4,3.1
		c0.3,1.3,0,2.7-0.9,4.2L90.3,192.5z M89.2,189.6c0.4-1.3,0-2.2-1.1-2.9c-0.3-0.1-0.5-0.2-0.8-0.3c-0.3-0.1-0.5-0.1-0.8,0
		c-0.3,0-0.5,0.1-0.8,0.2c-0.2,0.1-0.5,0.3-0.7,0.5L89.2,189.6z"/>
	<path fill="#FFFFFF" d="M101.5,183.4l-9.2,15.7l-2.1-1.2l9.2-15.7L101.5,183.4z"/>
	<path fill="#FFFFFF" d="M105.6,201.4l-6.5-3.8c-0.4,0.8-0.5,1.5-0.3,2.2c0.2,0.7,0.6,1.2,1.3,1.6c0.5,0.3,1,0.4,1.5,0.4
		c0.5-0.1,1.1-0.3,1.9-0.7l1.2,2c-0.5,0.3-1.1,0.5-1.6,0.7c-0.5,0.2-1,0.2-1.5,0.2c-0.5,0-0.9-0.1-1.4-0.2c-0.5-0.1-0.9-0.3-1.4-0.6
		c-1.3-0.8-2.2-1.9-2.5-3.2c-0.3-1.3,0-2.7,0.8-4.2c0.8-1.4,1.9-2.4,3.2-2.8c1.3-0.4,2.6-0.2,3.9,0.5c1.3,0.8,2.1,1.8,2.4,3.1
		c0.3,1.3,0,2.7-0.9,4.2L105.6,201.4z M104.4,198.5c0.4-1.3,0-2.2-1.1-2.9c-0.3-0.1-0.5-0.2-0.8-0.3c-0.3-0.1-0.5-0.1-0.8,0
		c-0.3,0-0.5,0.1-0.8,0.2c-0.2,0.1-0.5,0.3-0.7,0.5L104.4,198.5z"/>
	<path fill="#FFFFFF" d="M112,201.1l-4.1,7.1l-2.1-1.2l4.1-7.1l-0.9-0.5l1.1-1.9l0.9,0.5l1.9-3.3l2.1,1.2l-1.9,3.3l1.6,0.9l-1.1,1.9
		L112,201.1z"/>
</g>
<g>
</g>
</svg>
